HIERARCHY
ROOT Hips
{
  OFFSET 47.2107 84.165 14.4796
  CHANNELS 6 Xposition Yposition Zposition Zrotation Xrotation Yrotation
  JOINT spine
  {
    OFFSET 0 6.24479 0.359107
    CHANNELS 3 Zrotation Xrotation Yrotation
    JOINT spine1
    {
      OFFSET 0 9.06941 0
      CHANNELS 3 Zrotation Xrotation Yrotation
      JOINT spine2
      {
        OFFSET 0 8.69014 0
        CHANNELS 3 Zrotation Xrotation Yrotation
        JOINT Neck
        {
          OFFSET 0 22.3112 1.06372
          CHANNELS 3 Zrotation Xrotation Yrotation
          JOINT Head
          {
            OFFSET 0 6.74081 0
            CHANNELS 3 Zrotation Xrotation Yrotation
            End Site
            {
              OFFSET 0 16.3165 -5.38097
            }
          }
        }
        JOINT RightShoulder
        {
          OFFSET -3.65916 9.38468 -0.509514
          CHANNELS 3 Zrotation Xrotation Yrotation
          JOINT RightArm
          {
            OFFSET 0 12.3089 0
            CHANNELS 3 Zrotation Xrotation Yrotation
            JOINT RightArmRoll
            {
              OFFSET 0 6.21375 0
              CHANNELS 3 Zrotation Xrotation Yrotation
              JOINT RightForeArm
              {
                OFFSET 0 18.0985 0
                CHANNELS 3 Zrotation Xrotation Yrotation
                JOINT RightForeArmRoll
                {
                  OFFSET 0 6.97279 0
                  CHANNELS 3 Zrotation Xrotation Yrotation
                  JOINT RightHand
                  {
                    OFFSET 0 13.9928 0
                    CHANNELS 3 Zrotation Xrotation Yrotation
                    End Site
                    {
                      OFFSET 0 0 0
                    }
                  }
                }
              }
            }
          }
        }
        JOINT LeftShoulder
        {
          OFFSET 3.65916 9.38468 -0.509514
          CHANNELS 3 Zrotation Xrotation Yrotation
          JOINT LeftArm
          {
            OFFSET 0 12.3089 0
            CHANNELS 3 Zrotation Xrotation Yrotation
            JOINT LeftArmRoll
            {
              OFFSET 0 6.21375 0
              CHANNELS 3 Zrotation Xrotation Yrotation
              JOINT LeftForeArm
              {
                OFFSET 0 18.0985 0
                CHANNELS 3 Zrotation Xrotation Yrotation
                JOINT LeftForeArmRoll
                {
                  OFFSET 0 6.97279 0
                  CHANNELS 3 Zrotation Xrotation Yrotation
                  JOINT LeftHand
                  {
                    OFFSET 0 13.9929 0
                    CHANNELS 3 Zrotation Xrotation Yrotation
                    End Site
                    {
                      OFFSET 0 0 0
                    }
                  }
                }
              }
            }
          }
        }
      }
    }
  }
  JOINT RightUpLeg
  {
    OFFSET -5.53516 -1.015 -0.851454
    CHANNELS 3 Zrotation Xrotation Yrotation
    JOINT RightUpLegRoll
    {
      OFFSET 0 16.4075 0
      CHANNELS 3 Zrotation Xrotation Yrotation
      JOINT RightLeg
      {
        OFFSET 0 -20.3181 0
        CHANNELS 3 Zrotation Xrotation Yrotation
        JOINT RightLegRoll
        {
          OFFSET 0 20.3846 0
          CHANNELS 3 Zrotation Xrotation Yrotation
          JOINT RightFoot
          {
            OFFSET 0 16.9668 0
            CHANNELS 3 Zrotation Xrotation Yrotation
            JOINT RightToeBase
            {
              OFFSET 0 14.1834 0
              CHANNELS 3 Zrotation Xrotation Yrotation
              End Site
              {
                OFFSET 0.0060118 6.8689 -0.791745
              }
            }
          }
        }
      }
    }
  }
  JOINT LeftUpLeg
  {
    OFFSET 5.53516 -1.015 -0.851454
    CHANNELS 3 Zrotation Xrotation Yrotation
    JOINT LeftUpLegRoll
    {
      OFFSET 0 16.4076 0
      CHANNELS 3 Zrotation Xrotation Yrotation
      JOINT LeftLeg
      {
        OFFSET 0 20.3181 0
        CHANNELS 3 Zrotation Xrotation Yrotation
        JOINT LeftLegRoll
        {
          OFFSET 0 20.5731 0
          CHANNELS 3 Zrotation Xrotation Yrotation
          JOINT LeftFoot
          {
            OFFSET 0 16.7783 0
            CHANNELS 3 Zrotation Xrotation Yrotation
            JOINT LeftToeBase
            {
              OFFSET 0 14.1834 0
              CHANNELS 3 Zrotation Xrotation Yrotation
              End Site
              {
                OFFSET -0.0269423 6.8689 -0.791746
              }
            }
          }
        }
      }
    }
  }
}
MOTION
Frames: 8
Frame Time: 0.00208333
47.0577 84.2144 15.0081 -0.165253 -4.02086 -4.54468 -0.256932 -1.4849 0.0795295 -0.512055 1.03257 0.185726 -0.514572 2.67761 0.194388 3.89901 19.9338 -1.16514 -4.12072 2.17531 0.0275294 67.5403 0.0390833 -0.96288 114.81 29.4091 -34.5535 -3.83566e-006 1.08972e-007 -1.19175e-005 -166.625 84.593 158.644 -4.14683e-006 7.4052e-006 -3 8.03009 -4.95124 0.69762 -59.6145 -8.20426 5.09753 -120.579 24.582 38.0193 -9.54166e-015 6.36111e-015 -3.18055e-015 153.028 85.3641 -144.251 8.74259e-006 6.51771e-006 3.00001 -8.0301 -4.95125 -0.697616 176.329 2.46888 1.29606 180 7.01578e-015 179.066 179.525 11.7038 179.004 1.11929e-006 1.24137e-006 0.0852706 -16.1516 68.9185 20.2325 8.1365 25.2327 -3.48774 -176.155 -3.93305 -3.62652 4.54188e-006 -4.6773e-006 -1.16497 -1.06932 -11.7749 0.672471 -1.59214e-006 2.67224e-006 -0.421973 25.1068 73.9324 -26.3195 -8.1473 25.4056 3.24462 
47.0628 84.2182 15.0185 -0.164658 -4.02392 -4.55045 -0.2573 -1.4833 0.0803524 -0.512455 1.03575 0.187412 -0.514951 2.68079 0.196074 3.88491 19.9379 -1.15838 -4.11256 2.16086 0.0291365 67.5282 0.0360953 -0.963066 114.788 29.4277 -34.388 -3.83566e-006 1.08972e-007 -1.19175e-005 -166.748 84.5632 158.779 -4.14683e-006 7.4052e-006 -3 8.03009 -4.95124 0.69762 -59.624 -8.20599 5.09887 -120.52 24.5796 37.9137 1.58901e-030 -9.54166e-015 9.54166e-015 153.048 85.2936 -144.252 8.74259e-006 6.51771e-006 3.00001 -8.0301 -4.95125 -0.697616 176.324 2.46598 1.3024 180 7.01578e-015 179.066 179.518 11.6992 179.005 1.11929e-006 1.24137e-006 0.0852706 -16.1545 68.918 20.2322 8.1365 25.2327 -3.48774 -176.157 -3.94002 -3.62571 4.54188e-006 -4.6773e-006 -1.16498 -1.06914 -11.7654 0.672679 -1.59214e-006 2.67224e-006 -0.421923 25.097 73.9263 -26.3093 -8.14736 25.4066 3.24403 
47.0651 84.2266 15.0108 -0.163829 -4.0272 -4.55684 -0.257673 -1.48172 0.0811634 -0.512841 1.03891 0.189075 -0.515313 2.68395 0.197735 3.8694 19.9428 -1.1509 -4.10361 2.14563 0.0309866 67.5155 0.0336637 -0.962903 114.765 29.4454 -34.223 -3.83566e-006 1.08972e-007 -1.19175e-005 -166.869 84.5341 158.912 -4.14683e-006 7.4052e-006 -3 8.03009 -4.95124 0.69762 -59.6344 -8.2078 5.10029 -120.46 24.5769 37.8062 1.59028e-015 -6.36111e-015 -3.18055e-015 153.058 85.2262 -144.244 8.74259e-006 6.51771e-006 3.00001 -8.0301 -4.95125 -0.697616 176.319 2.4629 1.30928 180 7.01578e-015 179.066 179.511 11.6946 179.007 1.11929e-006 1.24137e-006 0.0852706 -16.1576 68.9176 20.232 8.1365 25.2327 -3.48774 -176.16 -3.9477 -3.62475 4.54188e-006 -4.6773e-006 -1.16501 -1.06897 -11.7554 0.672897 -1.59214e-006 2.67224e-006 -0.421877 25.0867 73.92 -26.2986 -8.14744 25.4077 3.24328 
47.0609 84.2233 14.9926 -0.162837 -4.03063 -4.56367 -0.258049 -1.48014 0.0819661 -0.513218 1.04207 0.190721 -0.515663 2.6871 0.19938 3.85289 19.9483 -1.14291 -4.0941 2.12984 0.0330066 67.5024 0.0316214 -0.962497 114.743 29.4624 -34.0585 -3.83566e-006 1.08972e-007 -1.19175e-005 -166.988 84.5055 159.042 -4.14683e-006 7.4052e-006 -3 8.03009 -4.95124 0.69762 -59.6455 -8.20966 5.10176 -120.399 24.5739 37.6973 7.06225e-031 -6.36111e-015 6.36111e-015 153.062 85.1609 -144.231 8.74259e-006 6.51771e-006 3.00001 -8.0301 -4.95125 -0.697616 176.314 2.45969 1.31654 180 7.01578e-015 179.066 179.504 11.69 179.008 1.11929e-006 1.24137e-006 0.0852706 -16.1609 68.9172 20.2317 8.1365 25.2327 -3.48774 -176.163 -3.95589 -3.62368 4.54188e-006 -4.6773e-006 -1.16504 -1.0688 -11.745 0.67312 -1.59214e-006 2.67224e-006 -0.421835 25.076 73.9134 -26.2875 -8.14753 25.409 3.24244 
47.0624 84.2171 14.9882 -0.161752 -4.03415 -4.57075 -0.258426 -1.47856 0.082764 -0.51359 1.04521 0.192357 -0.516007 2.69025 0.201014 3.83583 19.9541 -1.13464 -4.08427 2.11375 0.0351238 67.4892 0.0298016 -0.961951 114.721 29.4788 -33.8941 -3.83566e-006 1.08972e-007 -1.19175e-005 -167.105 84.4772 159.171 -4.14683e-006 7.4052e-006 -3 8.03009 -4.95124 0.69762 -59.657 -8.21155 5.10326 -120.338 24.5707 37.5876 -6.36111e-015 -6.36111e-015 -6.36111e-015 153.063 85.0969 -144.215 8.74259e-006 6.51771e-006 3.00001 -8.0301 -4.95125 -0.697616 176.308 2.4564 1.32401 180 7.01578e-015 179.066 179.496 11.6854 179.01 1.11929e-006 1.24137e-006 0.0852706 -16.1643 68.9167 20.2315 8.1365 25.2327 -3.48774 -176.166 -3.96437 -3.62255 4.54188e-006 -4.6773e-006 -1.16508 -1.06864 -11.7343 0.673348 -1.59214e-006 2.67224e-006 -0.421795 25.0651 73.9067 -26.2761 -8.14762 25.4103 3.24153 
47.0617 84.2171 14.9788 -0.160645 -4.03769 -4.57789 -0.258804 -1.47699 0.0835607 -0.51396 1.04836 0.193992 -0.51635 2.69339 0.202646 3.81862 19.9601 -1.12629 -4.07435 2.09758 0.0372652 67.4759 0.0280375 -0.961369 114.698 29.4949 -33.7298 -3.83566e-006 1.08972e-007 -1.19175e-005 -167.221 84.449 159.299 -4.14683e-006 7.4052e-006 -3 8.03009 -4.95124 0.69762 -59.6686 -8.21345 5.10477 -120.276 24.5674 37.4778 -1.90833e-014 1.27222e-014 3.18055e-015 153.063 85.0332 -144.199 8.74259e-006 6.51771e-006 3.00001 -8.0301 -4.95125 -0.697616 176.302 2.45309 1.33154 180 7.01578e-015 179.066 179.489 11.6808 179.011 1.11929e-006 1.24137e-006 0.0852706 -16.1676 68.9163 20.2312 8.1365 25.2327 -3.48774 -176.17 -3.97293 -3.62141 4.54188e-006 -4.6773e-006 -1.16512 -1.06848 -11.7236 0.673577 -1.59214e-006 2.67224e-006 -0.421755 25.0542 73.9 -26.2648 -8.14771 25.4116 3.24061 
47.0588 84.2268 14.977 -0.159585 -4.04118 -4.58491 -0.259181 -1.47541 0.0843598 -0.514334 1.0515 0.195631 -0.516696 2.69654 0.204283 3.80169 19.9658 -1.11809 -4.0646 2.08157 0.039358 67.4627 0.0261621 -0.960858 114.676 29.5108 -33.5652 -3.83566e-006 1.08972e-007 -1.19175e-005 -167.336 84.4205 159.425 -4.14683e-006 7.4052e-006 -3 8.03009 -4.95124 0.69762 -59.68 -8.21534 5.10626 -120.215 24.5639 37.3683 -1.59028e-015 -6.36111e-015 3.18055e-015 153.065 84.9689 -144.184 8.74259e-006 6.51771e-006 3.00001 -8.0301 -4.95125 -0.697616 176.297 2.44983 1.33896 180 7.01578e-015 179.066 179.481 11.6762 179.013 1.11929e-006 1.24137e-006 0.0852706 -16.171 68.9159 20.231 8.1365 25.2327 -3.48774 -176.173 -3.98134 -3.62029 4.54188e-006 -4.6773e-006 -1.16515 -1.06832 -11.713 0.673803 -1.59214e-006 2.67224e-006 -0.421714 25.0434 73.8933 -26.2535 -8.14779 25.4129 3.23972 
47.0572 84.225 14.9702 -0.158643 -4.04457 -4.59161 -0.259556 -1.47383 0.0851649 -0.514714 1.05466 0.197281 -0.51705 2.6997 0.205933 3.78546 19.9712 -1.11025 -4.05524 2.06594 0.0413293 67.4497 0.0240086 -0.960521 114.654 29.5268 -33.4002 -3.83566e-006 1.08972e-007 -1.19175e-005 -167.45 84.3917 159.55 -4.14683e-006 7.4052e-006 -3 8.03009 -4.95124 0.69762 -59.6909 -8.21718 5.10772 -120.154 24.5604 37.2597 -1.11319e-014 3.18055e-015 -6.36111e-015 153.072 84.903 -144.174 8.74259e-006 6.51771e-006 3.00001 -8.0301 -4.95125 -0.697616 176.291 2.44665 1.3461 180 7.01578e-015 179.066 179.474 11.6716 179.014 1.11929e-006 1.24137e-006 0.0852706 -16.1742 68.9154 20.2307 8.1365 25.2327 -3.48774 -176.176 -3.98938 -3.61925 4.54188e-006 -4.6773e-006 -1.16519 -1.06815 -11.7027 0.674026 -1.59214e-006 2.67224e-006 -0.421671 25.0329 73.8868 -26.2426 -8.14788 25.4142 3.2389 
